<svg xmlns="http://www.w3.org/2000/svg" version="1.1" xmlns:xlink="http://www.w3.org/1999/xlink" xmlns:svgjs="http://svgjs.dev/svgjs" width="2000" height="550" viewBox="0 0 2000 550"><g transform="matrix(1,0,0,1,-0.5957856761942821,1.2091772144216861)"><svg viewBox="0 0 309 85" data-background-color="#333366" preserveAspectRatio="xMidYMid meet" height="550" width="2000" xmlns="http://www.w3.org/2000/svg" xmlns:xlink="http://www.w3.org/1999/xlink"><g id="tight-bounds" transform="matrix(1,0,0,1,0.09204888697200886,-0.18687284222880862)"><svg viewBox="0 0 308.8159014511956 85.3737456844576" height="85.3737456844576" width="308.8159014511956"><g><svg viewBox="0 0 308.8159014511956 85.3737456844576" height="85.3737456844576" width="308.8159014511956"><g><svg viewBox="0 0 308.8159014511956 85.3737456844576" height="85.3737456844576" width="308.8159014511956"><g id="textblocktransform"><svg viewBox="0 0 308.8159014511956 85.3737456844576" height="85.3737456844576" width="308.8159014511956" id="textblock"><g><svg viewBox="0 0 308.8159014511956 59.38059999999999" height="59.38059999999999" width="308.8159014511956"><g><svg><g></g><g></g></svg></g><g><svg><g><svg></svg></g><g></g></svg></g><g id="text-0"><svg viewBox="0 0 308.8159014511956 59.38059999999999" height="59.38059999999999" width="308.8159014511956"><g transform="matrix(1,0,0,1,0,11.340299999999996)"><svg width="178.25000000000003" viewBox="2 -35.900001525878906 178.24000549316406 36.70000076293945" height="36.699999999999996" data-palette-color="#ffff33"><path d="M30.5-6.9L28.8 0 2 0 2-1.4 3.7-1.4Q5.15-1.4 5.63-1.95 6.1-2.5 6.1-3.7L6.1-3.7 6.1-31.3Q6.1-32.3 5.48-32.95 4.85-33.6 3.7-33.6L3.7-33.6 2-33.6 2-35 28.4-35 28.8-28.1 27.4-27.8Q27.4-29.6 25.95-31.25 24.5-32.9 21.9-32.9L21.9-32.9 12.8-32.9Q11.3-32.9 10.85-32.33 10.4-31.75 10.4-30.7L10.4-30.7 10.4-19.3 20.4-19.3Q21.15-19.3 21.55-19.38 21.95-19.45 22.28-19.9 22.6-20.35 22.6-21.2L22.6-21.2 22.6-23.5 24.1-23.5 24.1-13.1 22.6-13.1 22.6-15.2Q22.6-16.45 22.05-16.82 21.5-17.2 20.4-17.2L20.4-17.2 10.4-17.2 10.4-4.3Q10.4-3.25 10.85-2.68 11.3-2.1 12.8-2.1L12.8-2.1 22.3-2.1Q24.95-2.1 26.98-3.8 29-5.5 29.1-7.1L29.1-7.1 30.5-6.9ZM63.1 0.8L63.1 0.8 41-28.8 41-3.7Q41-1.5 44.1-1.5L44.1-1.5 46-1.5 46 0 34 0 34-1.5 35.6-1.5Q38.7-1.5 38.7-3.7L38.7-3.7 38.7-31.3Q38.7-33.5 35.6-33.5L35.6-33.5 34-33.5 34-35 41.9-35 62.5-7.3 62.5-31.3Q62.5-33.5 59.5-33.5L59.5-33.5 57.8-33.5 57.8-35 69.8-35 69.8-33.5 67.9-33.5Q64.8-33.5 64.8-31.3L64.8-31.3 64.8-0.2Q64.25-0.2 63.62 0.28 63 0.75 63.1 0.8ZM86.6-1.4L86.6 0 73.9 0 73.9-1.4 75.6-1.4Q77.1-1.4 77.55-2 78-2.6 78-3.7L78-3.7 78-31.3Q78-32.4 77.55-33 77.1-33.6 75.6-33.6L75.6-33.6 73.9-33.6 73.9-35 86.6-35 86.6-33.6 84.7-33.6Q83.2-33.6 82.75-33 82.3-32.4 82.3-31.3L82.3-31.3 82.3-3.7Q82.3-2.6 82.75-2 83.2-1.4 84.7-1.4L84.7-1.4 86.6-1.4ZM107.29-32.2L98.99-31.7 98.99-4.5Q101.89-2.8 106.89-2.8L106.89-2.8Q112.84-2.8 117.39-6.05L117.39-6.05Q119.69-7.7 121.04-10.65 122.39-13.6 122.39-17.32 122.39-21.05 120.92-23.95 119.44-26.85 117.09-28.6L117.09-28.6Q112.34-32.2 107.29-32.2L107.29-32.2ZM90.59-35L98.29-35 110.69-35.5Q117.64-35.5 121.67-31 125.69-26.5 125.69-18.98 125.69-11.45 119.92-5.73 114.14 0 106.39 0L106.39 0 90.59 0 90.59-1.5 92.29-1.5Q93.79-1.5 94.24-2.05 94.69-2.6 94.69-3.7L94.69-3.7 94.69-31.3Q94.69-32.45 94.22-32.98 93.74-33.5 92.29-33.5L92.29-33.5 90.59-33.5 90.59-35ZM142.19-1.4L142.19 0 129.49 0 129.49-1.4 131.19-1.4Q132.69-1.4 133.14-2 133.59-2.6 133.59-3.7L133.59-3.7 133.59-31.3Q133.59-32.4 133.14-33 132.69-33.6 131.19-33.6L131.19-33.6 129.49-33.6 129.49-35 142.19-35 142.19-33.6 140.29-33.6Q138.79-33.6 138.34-33 137.89-32.4 137.89-31.3L137.89-31.3 137.89-3.7Q137.89-2.6 138.34-2 138.79-1.4 140.29-1.4L140.29-1.4 142.19-1.4ZM180.24-1.4L180.24 0 167.44 0 167.44-1.4 169.04-1.4Q171.24-1.4 171.24-2.8L171.24-2.8Q171.24-3 170.74-4.5L170.74-4.5 167.34-13.4 154.74-13.4 151.44-4.9Q151.44-4.8 151.09-3.68 150.74-2.55 150.74-2.13 150.74-1.7 151.29-1.55 151.84-1.4 153.64-1.4L153.64-1.4 154.44-1.4 154.44 0 144.64 0 144.64-1.4 145.34-1.4Q146.99-1.4 147.74-1.98 148.49-2.55 149.04-3.9L149.04-3.9 160.04-32.6Q160.29-32.65 160.94-33.33 161.59-34 162.14-34.73 162.69-35.45 162.69-35.55 162.69-35.65 162.64-35.7L162.64-35.7 163.34-35.9 175.64-3.7Q176.19-2.55 176.76-1.98 177.34-1.4 178.44-1.4L178.44-1.4 180.24-1.4ZM155.54-15.5L166.44-15.5 161.04-29.8 155.54-15.5Z" opacity="1" transform="matrix(1,0,0,1,0,0)" fill="#ffff33" class="undefined-p-0"></path></svg></g><g><svg xmlns="http://www.w3.org/2000/svg" xmlns:xlink="http://www.w3.org/1999/xlink" version="1.1" x="192.26940000000002" y="0" viewBox="10.100000381469727 5.199999809265137 78.4000015258789 90" enable-background="new 0 0 100 100" xml:space="preserve" height="59.38059999999999" width="51.7271014511956" class="icon-s-0" data-fill-palette-color="accent" id="s-0"><polygon fill-rule="evenodd" clip-rule="evenodd" fill="#ffffff" points="88.5,28.2 68.4,59.9 68.5,22.3 " data-fill-palette-color="accent"></polygon><polygon fill-rule="evenodd" clip-rule="evenodd" fill="#ffffff" points="49.8,5.2 67.2,38.5 34.7,19.6 " data-fill-palette-color="accent"></polygon><polygon fill-rule="evenodd" clip-rule="evenodd" fill="#ffffff" points="67.8,38.3 67.8,22.3 60.8,24.5 " data-fill-palette-color="accent"></polygon><polygon fill-rule="evenodd" clip-rule="evenodd" fill="#ffffff" points="88.2,73.2 50.6,71.7 83.2,52.9 " data-fill-palette-color="accent"></polygon><polygon fill-rule="evenodd" clip-rule="evenodd" fill="#ffffff" points="69.1,60.3 82.8,52.3 77.4,47.4 " data-fill-palette-color="accent"></polygon><polygon fill-rule="evenodd" clip-rule="evenodd" fill="#ffffff" points="48.7,95.2 31.5,61.9 63.9,80.9 " data-fill-palette-color="accent"></polygon><polygon fill-rule="evenodd" clip-rule="evenodd" fill="#ffffff" points="50.5,72.2 64.2,80.2 65.8,73.1 " data-fill-palette-color="accent"></polygon><polygon fill-rule="evenodd" clip-rule="evenodd" fill="#ffffff" points="10.1,72 30.5,40.4 30.1,78 " data-fill-palette-color="accent"></polygon><polygon fill-rule="evenodd" clip-rule="evenodd" fill="#ffffff" points="30.9,62.1 30.8,78 37.8,75.8 " data-fill-palette-color="accent"></polygon><polygon fill-rule="evenodd" clip-rule="evenodd" fill="#ffffff" points="11,27 48.5,28.9 15.8,47.3 " data-fill-palette-color="accent"></polygon><polygon fill-rule="evenodd" clip-rule="evenodd" fill="#ffffff" points="30,40.1 16.1,47.9 21.5,52.9 " data-fill-palette-color="accent"></polygon><polygon fill-rule="evenodd" clip-rule="evenodd" fill="#ffffff" points="48.2,28.3 34.5,20.2 32.9,27.4 " data-fill-palette-color="accent"></polygon></svg></g><g transform="matrix(1,0,0,1,258.01590145119565,10.940299999999995)"><svg width="50.8" viewBox="0.44999998807907104 -35.900001525878906 50.79999923706055 35.900001525878906" height="35.9" data-palette-color="#ffff33"><path d="M36.05-1.4L36.05 0 23.25 0 23.25-1.4 24.85-1.4Q27.05-1.4 27.05-2.8L27.05-2.8Q27.05-3 26.55-4.5L26.55-4.5 23.15-13.4 10.55-13.4 7.25-4.9Q7.25-4.8 6.9-3.68 6.55-2.55 6.55-2.13 6.55-1.7 7.1-1.55 7.65-1.4 9.45-1.4L9.45-1.4 10.25-1.4 10.25 0 0.45 0 0.45-1.4 1.15-1.4Q2.8-1.4 3.55-1.98 4.3-2.55 4.85-3.9L4.85-3.9 15.85-32.6Q16.1-32.65 16.75-33.33 17.4-34 17.95-34.73 18.5-35.45 18.5-35.55 18.5-35.65 18.45-35.7L18.45-35.7 19.15-35.9 31.45-3.7Q32-2.55 32.58-1.98 33.15-1.4 34.25-1.4L34.25-1.4 36.05-1.4ZM11.35-15.5L22.25-15.5 16.85-29.8 11.35-15.5ZM51.25-1.4L51.25 0 38.55 0 38.55-1.4 40.25-1.4Q41.75-1.4 42.2-2 42.65-2.6 42.65-3.7L42.65-3.7 42.65-31.3Q42.65-32.4 42.2-33 41.75-33.6 40.25-33.6L40.25-33.6 38.55-33.6 38.55-35 51.25-35 51.25-33.6 49.35-33.6Q47.85-33.6 47.4-33 46.95-32.4 46.95-31.3L46.95-31.3 46.95-3.7Q46.95-2.6 47.4-2 47.85-1.4 49.35-1.4L49.35-1.4 51.25-1.4Z" opacity="1" transform="matrix(1,0,0,1,0,0)" fill="#ffff33" class="undefined-p-1"></path></svg></g></svg></g></svg></g><g transform="matrix(1,0,0,1,58.98383717717836,67.85572839999999)"><svg viewBox="0 0 190.84822709683888 17.518017284457613" height="17.518017284457613" width="190.84822709683888"><g transform="matrix(1,0,0,1,0,0)"><svg width="190.84822709683888" viewBox="-0.30000001192092896 -36 505.4499816894531 46.400001525878906" height="17.518017284457613" data-palette-color="#ffffff"><path d="M12.65-34.75L19.5-34.75 29.45-5.9Q31.55-5.15 32.4-4.15L32.4-4.15 31.9 0 20.2 0 19.7-4.15Q20.3-4.95 22.1-5.65L22.1-5.65 20.75-9.85 10.75-9.85 9.5-5.8Q11.25-5.1 12.1-4.15L12.1-4.15 11.6 0 0.2 0-0.3-4.15Q0.6-5.3 3.05-6.05L3.05-6.05 12.65-34.75ZM16.05-27.75L15.35-27.75Q15.35-24.7 14.1-20.65L14.1-20.65 12.15-14.45 19.3-14.45 17.4-20.55Q16.25-24.05 16.1-26.9L16.1-26.9 16.05-27.75ZM51.55-2.1L51.55-2.1Q48.1 0.4 43.42 0.4 38.75 0.4 36.9-1.55 35.05-3.5 35.05-7.9L35.05-7.9 35.05-19.45Q33.3-20.05 32.3-21.15L32.3-21.15 32.8-25Q35.6-25.65 38-25.65 40.4-25.65 42.05-25.5L42.05-25.5 42.05-9.55Q42.05-6.85 42.87-5.98 43.7-5.1 46.15-5.1 48.6-5.1 50.7-6.7L50.7-6.7 50.7-19.45Q48.95-20.05 47.95-21.15L47.95-21.15 48.45-25Q51.25-25.65 53.65-25.65 56.05-25.65 57.7-25.5L57.7-25.5 57.7-6Q59.45-5.65 60.45-5.15L60.45-5.15 60.45-1.2Q57.45 0.4 52.9 0.4L52.9 0.4Q51.65-0.5 51.55-2.1ZM67.95-31.3L71.6-31.3 71.6-25 78.75-25 78.75-20.8 71.6-20.8 71.6-8.15Q71.6-6.55 72.05-5.83 72.5-5.1 74.2-5.1 75.9-5.1 77.85-5.85L77.85-5.85 79.35-1.95Q75.5 0 71.47 0 67.45 0 66.02-1.73 64.6-3.45 64.6-6.75L64.6-6.75 64.6-20.8 62.35-20.8 61.8-23.85Q62.6-24.8 65.1-25.75L65.1-25.75Q65.7-29.85 67.95-31.3L67.95-31.3ZM92.67 0.4Q86.74 0.4 83.89-2.75 81.04-5.9 81.04-12.28 81.04-18.65 84.22-22.03 87.39-25.4 93.34-25.4 99.29-25.4 102.17-22.4 105.04-19.4 105.04-13.03 105.04-6.65 101.82-3.13 98.59 0.4 92.67 0.4ZM88.24-12.7L88.24-12.7Q88.24-4.7 93.04-4.7L93.04-4.7Q95.49-4.7 96.67-6.53 97.84-8.35 97.84-12.5L97.84-12.5Q97.84-20.3 92.94-20.3L92.94-20.3Q90.54-20.3 89.39-18.57 88.24-16.85 88.24-12.7ZM107.59-21.15L108.09-25Q110.84-25.6 113.04-25.6 115.24-25.6 116.69-25.5L116.69-25.5 116.69-23Q117.89-24 119.69-24.7 121.49-25.4 122.94-25.4L122.94-25.4Q128.64-25.4 130.54-22.55L130.54-22.55Q131.79-23.75 133.84-24.58 135.89-25.4 137.64-25.4L137.64-25.4Q143.14-25.4 145.04-22.93 146.94-20.45 146.94-13.65L146.94-13.65 146.94-5.55Q148.89-4.8 149.69-3.85L149.69-3.85 149.19 0 137.69 0 137.19-3.85Q137.89-4.8 139.94-5.55L139.94-5.55 139.94-15.45Q139.94-18.2 139.19-19.1 138.44-20 136.22-20 133.99-20 131.99-18.35L131.99-18.35Q132.24-16.65 132.24-13.65L132.24-13.65 132.24-5.55Q134.19-4.8 134.99-3.85L134.99-3.85 134.49 0 122.99 0 122.49-3.85Q123.19-4.8 125.24-5.55L125.24-5.55 125.24-15.45Q125.24-18.2 124.49-19.1 123.74-20 121.54-20 119.34-20 117.34-18.4L117.34-18.4 117.34-5.55Q119.29-4.8 120.09-3.85L120.09-3.85 119.59 0 108.09 0 107.59-3.85Q108.29-4.8 110.34-5.55L110.34-5.55 110.34-19.45Q108.59-20.05 107.59-21.15L107.59-21.15ZM152.39-21.3L152.39-21.3Q152.39-22.05 152.44-22.9L152.44-22.9Q157.09-25.4 162.44-25.4 167.79-25.4 170.11-23.38 172.44-21.35 172.44-16.65L172.44-16.65 172.44-6Q174.19-5.65 175.19-5.15L175.19-5.15 175.19-0.8Q172.64 0.4 167.89 0.4L167.89 0.4Q167.39-0.9 167.04-2.75L167.04-2.75Q164.89 0.4 159.24 0.4L159.24 0.4Q155.89 0.4 153.51-1.55 151.14-3.5 151.14-6.85 151.14-10.2 153.36-12.13 155.59-14.05 159.99-14.05L159.99-14.05 165.44-14.05 165.44-16.45Q165.44-20.35 161.29-20.35L161.29-20.35Q159.74-20.35 158.74-20.05L158.74-20.05Q158.64-17.95 158.14-16.8L158.14-16.8 153.24-16.8Q152.39-18.55 152.39-21.3ZM161.39-4.7L161.39-4.7Q163.94-4.7 165.44-6.2L165.44-6.2 165.44-10.3 161.94-10.3Q158.34-10.3 158.34-7.55L158.34-7.55Q158.34-6.3 159.11-5.5 159.89-4.7 161.39-4.7ZM182.44-31.3L186.09-31.3 186.09-25 193.24-25 193.24-20.8 186.09-20.8 186.09-8.15Q186.09-6.55 186.54-5.83 186.99-5.1 188.69-5.1 190.39-5.1 192.34-5.85L192.34-5.85 193.84-1.95Q189.99 0 185.96 0 181.94 0 180.51-1.73 179.09-3.45 179.09-6.75L179.09-6.75 179.09-20.8 176.84-20.8 176.29-23.85Q177.09-24.8 179.59-25.75L179.59-25.75Q180.19-29.85 182.44-31.3L182.44-31.3ZM195.68-21.15L196.18-25Q198.98-25.65 201.38-25.65 203.78-25.65 205.43-25.5L205.43-25.5 205.43-5.55Q207.38-4.8 208.18-3.85L208.18-3.85 207.68 0 196.18 0 195.68-3.85Q196.38-4.8 198.43-5.55L198.43-5.55 198.43-19.45Q196.68-20.05 195.68-21.15L195.68-21.15ZM201.86-28.45Q197.68-28.45 197.68-32.23 197.68-36 201.86-36 206.03-36 206.03-32.23 206.03-28.45 201.86-28.45ZM210.18-21.15L210.68-25Q213.43-25.6 215.63-25.6 217.83-25.6 219.28-25.5L219.28-25.5 219.28-23Q220.53-24.05 222.61-24.73 224.68-25.4 226.58-25.4L226.58-25.4Q231.48-25.4 233.46-23.1 235.43-20.8 235.43-15.15L235.43-15.15 235.43-5.55Q237.38-4.8 238.18-3.85L238.18-3.85 237.68 0 226.18 0 225.68-3.85Q226.38-4.8 228.43-5.55L228.43-5.55 228.43-15.45Q228.43-18.15 227.56-19.07 226.68-20 224.43-20 222.18-20 219.93-18.4L219.93-18.4 219.93-5.55Q221.88-4.8 222.68-3.85L222.68-3.85 222.18 0 210.68 0 210.18-3.85Q210.88-4.8 212.93-5.55L212.93-5.55 212.93-19.45Q211.18-20.05 210.18-21.15L210.18-21.15ZM251.43 5.3L251.43 5.3Q255.88 5.3 255.88-0.05L255.88-0.05 255.88-2.25Q253.43-0.75 249.73-0.75L249.73-0.75Q245.03-0.75 242.5-3.5 239.98-6.25 239.98-12.65L239.98-12.65Q239.98-25.4 251.68-25.4L251.68-25.4Q254.68-25.4 257.28-24.1L257.28-24.1Q257.78-25 258.78-25L258.78-25 262.88-25 262.88-0.4Q262.88 5.1 260.15 7.75 257.43 10.4 251.73 10.4L251.73 10.4Q248.73 10.4 245.53 9.7 242.33 9 240.68 7.95L240.68 7.95Q240.63 7.5 240.63 7.05L240.63 7.05Q240.63 4.3 241.93 1.75L241.93 1.75 246.33 1.75Q246.88 2.8 247.13 4.55L247.13 4.55Q249.03 5.3 251.43 5.3ZM246.88-12.95Q246.88-9.2 247.9-7.7 248.93-6.2 251.4-6.2 253.88-6.2 255.88-7.6L255.88-7.6 255.88-19.45Q253.88-20.3 251.53-20.3L251.53-20.3Q246.88-20.3 246.88-12.95L246.88-12.95ZM305.27-24.4L305.27-24.4Q305.27-21 303.15-18.7 301.02-16.4 297.82-15.2L297.82-15.2Q300.32-14.15 301.12-12.65L301.12-12.65 304.77-5.7Q307.12-4.9 307.97-3.85L307.97-3.85 307.47 0 299.02 0 293.27-12.25Q292.47-14.1 291.42-14.1L291.42-14.1 288.17-14.1 288.17-6.1Q291.82-5.3 292.72-4.15L292.72-4.15 292.22 0 278.72 0 278.22-4.15Q278.87-5 280.97-5.8L280.97-5.8 280.97-28.65Q278.92-29.4 278.22-30.35L278.22-30.35 278.72-34.5 291.47-34.5Q298.47-34.4 301.87-32.25 305.27-30.1 305.27-24.4ZM291.12-29.05L291.12-29.05 288.17-29.05 288.17-19.55 291.02-19.55Q294.42-19.55 296.1-20.58 297.77-21.6 297.77-24.25 297.77-26.9 296.07-27.98 294.37-29.05 291.12-29.05ZM321.32 0.4L321.32 0.4Q315.32 0.4 312.3-2.8 309.27-6 309.27-12.1L309.27-12.1Q309.27-15.8 310.32-18.48 311.37-21.15 313.17-22.6L313.17-22.6Q316.67-25.4 321.32-25.4 325.97-25.4 328.45-23.03 330.92-20.65 330.92-14.5L330.92-14.5Q330.92-10.9 327.37-10.9L327.37-10.9 316.52-10.9Q316.72-7.75 318.15-6.45 319.57-5.15 322.67-5.15L322.67-5.15Q324.37-5.15 325.92-5.55 327.47-5.95 328.17-6.35L328.17-6.35 328.87-6.75 330.37-2.75Q330.07-2.4 329.5-1.88 328.92-1.35 326.6-0.48 324.27 0.4 321.32 0.4ZM316.57-15.05L324.47-15.35Q324.57-16.05 324.57-17.05 324.57-18.05 323.77-19.18 322.97-20.3 321-20.3 319.02-20.3 317.97-19.1 316.92-17.9 316.57-15.05L316.57-15.05ZM334.47-21.3L334.47-21.3Q334.47-22.05 334.52-22.9L334.52-22.9Q339.17-25.4 344.52-25.4 349.87-25.4 352.19-23.38 354.52-21.35 354.52-16.65L354.52-16.65 354.52-6Q356.27-5.65 357.27-5.15L357.27-5.15 357.27-0.8Q354.72 0.4 349.97 0.4L349.97 0.4Q349.47-0.9 349.12-2.75L349.12-2.75Q346.97 0.4 341.32 0.4L341.32 0.4Q337.97 0.4 335.59-1.55 333.22-3.5 333.22-6.85 333.22-10.2 335.44-12.13 337.67-14.05 342.07-14.05L342.07-14.05 347.52-14.05 347.52-16.45Q347.52-20.35 343.37-20.35L343.37-20.35Q341.82-20.35 340.82-20.05L340.82-20.05Q340.72-17.95 340.22-16.8L340.22-16.8 335.32-16.8Q334.47-18.55 334.47-21.3ZM343.47-4.7L343.47-4.7Q346.02-4.7 347.52-6.2L347.52-6.2 347.52-10.3 344.02-10.3Q340.42-10.3 340.42-7.55L340.42-7.55Q340.42-6.3 341.19-5.5 341.97-4.7 343.47-4.7ZM369.07-20.9L369.07-20.9Q365.77-20.9 365.77-18.95L365.77-18.95Q365.77-17.1 369.22-16.2L369.22-16.2 373.17-15.15Q379.27-13.55 379.27-8.1L379.27-8.1Q379.27-4.35 376.64-1.98 374.02 0.4 368.29 0.4 362.57 0.4 359.37-1.2L359.37-1.2Q359.32-1.75 359.32-2.3L359.32-2.3Q359.32-5.05 360.42-7.25L360.42-7.25 364.57-7.25Q365.22-6.05 365.42-4.75L365.42-4.75Q366.42-4.45 368.27-4.45L368.27-4.45Q372.67-4.45 372.67-6.95L372.67-6.95Q372.67-7.75 372.07-8.28 371.47-8.8 369.72-9.3L369.72-9.3 365.77-10.45Q362.72-11.3 361.02-12.98 359.32-14.65 359.32-17.93 359.32-21.2 361.97-23.3 364.62-25.4 369.54-25.4 374.47-25.4 377.87-23.95L377.87-23.95Q377.92-23.45 377.92-22.95L377.92-22.95Q377.92-20.35 376.82-18.15L376.82-18.15 372.72-18.15Q372.07-19.3 371.87-20.55L371.87-20.55Q370.47-20.9 369.07-20.9ZM393.19 0.4Q387.26 0.4 384.41-2.75 381.56-5.9 381.56-12.28 381.56-18.65 384.74-22.03 387.91-25.4 393.86-25.4 399.81-25.4 402.69-22.4 405.56-19.4 405.56-13.03 405.56-6.65 402.34-3.13 399.11 0.4 393.19 0.4ZM388.76-12.7L388.76-12.7Q388.76-4.7 393.56-4.7L393.56-4.7Q396.01-4.7 397.19-6.53 398.36-8.35 398.36-12.5L398.36-12.5Q398.36-20.3 393.46-20.3L393.46-20.3Q391.06-20.3 389.91-18.57 388.76-16.85 388.76-12.7ZM408.11-21.15L408.61-25Q411.36-25.6 413.56-25.6 415.76-25.6 417.21-25.5L417.21-25.5 417.21-23Q418.46-24.05 420.54-24.73 422.61-25.4 424.51-25.4L424.51-25.4Q429.41-25.4 431.39-23.1 433.36-20.8 433.36-15.15L433.36-15.15 433.36-5.55Q435.31-4.8 436.11-3.85L436.11-3.85 435.61 0 424.11 0 423.61-3.85Q424.31-4.8 426.36-5.55L426.36-5.55 426.36-15.45Q426.36-18.15 425.49-19.07 424.61-20 422.36-20 420.11-20 417.86-18.4L417.86-18.4 417.86-5.55Q419.81-4.8 420.61-3.85L420.61-3.85 420.11 0 408.61 0 408.11-3.85Q408.81-4.8 410.86-5.55L410.86-5.55 410.86-19.45Q409.11-20.05 408.11-21.15L408.11-21.15ZM437.96-21.15L438.46-25Q441.26-25.65 443.66-25.65 446.06-25.65 447.71-25.5L447.71-25.5 447.71-5.55Q449.66-4.8 450.46-3.85L450.46-3.85 449.96 0 438.46 0 437.96-3.85Q438.66-4.8 440.71-5.55L440.71-5.55 440.71-19.45Q438.96-20.05 437.96-21.15L437.96-21.15ZM444.13-28.45Q439.96-28.45 439.96-32.23 439.96-36 444.13-36 448.31-36 448.31-32.23 448.31-28.45 444.13-28.45ZM452.46-21.15L452.96-25Q455.71-25.6 457.91-25.6 460.11-25.6 461.56-25.5L461.56-25.5 461.56-23Q462.81-24.05 464.88-24.73 466.96-25.4 468.86-25.4L468.86-25.4Q473.76-25.4 475.73-23.1 477.71-20.8 477.71-15.15L477.71-15.15 477.71-5.55Q479.66-4.8 480.46-3.85L480.46-3.85 479.96 0 468.46 0 467.96-3.85Q468.66-4.8 470.71-5.55L470.71-5.55 470.71-15.45Q470.71-18.15 469.83-19.07 468.96-20 466.71-20 464.46-20 462.21-18.4L462.21-18.4 462.21-5.55Q464.16-4.8 464.96-3.85L464.96-3.85 464.46 0 452.96 0 452.46-3.85Q453.16-4.8 455.21-5.55L455.21-5.55 455.21-19.45Q453.46-20.05 452.46-21.15L452.46-21.15ZM493.7 5.3L493.7 5.3Q498.15 5.3 498.15-0.05L498.15-0.05 498.15-2.25Q495.7-0.75 492-0.75L492-0.75Q487.3-0.75 484.78-3.5 482.25-6.25 482.25-12.65L482.25-12.65Q482.25-25.4 493.95-25.4L493.95-25.4Q496.95-25.4 499.55-24.1L499.55-24.1Q500.05-25 501.05-25L501.05-25 505.15-25 505.15-0.4Q505.15 5.1 502.43 7.75 499.7 10.4 494 10.4L494 10.4Q491 10.4 487.8 9.7 484.6 9 482.95 7.95L482.95 7.95Q482.9 7.5 482.9 7.05L482.9 7.05Q482.9 4.3 484.2 1.75L484.2 1.75 488.6 1.75Q489.15 2.8 489.4 4.55L489.4 4.55Q491.3 5.3 493.7 5.3ZM489.15-12.95Q489.15-9.2 490.18-7.7 491.2-6.2 493.68-6.2 496.15-6.2 498.15-7.6L498.15-7.6 498.15-19.45Q496.15-20.3 493.8-20.3L493.8-20.3Q489.15-20.3 489.15-12.95L489.15-12.95Z" opacity="1" transform="matrix(1,0,0,1,0,0)" fill="#ffffff" class="undefined-text-1" data-fill-palette-color="secondary" id="text-1"></path></svg></g></svg></g></svg></g></svg></g><g></g></svg></g><defs></defs></svg><rect width="308.8159014511956" height="85.3737456844576" fill="none" stroke="none" visibility="hidden"></rect></g></svg></g></svg>